<svg width="614" height="558" viewBox="0 0 614 558" fill="none" xmlns="http://www.w3.org/2000/svg">
<g clip-path="url(#clip0_125_2135)">
<path d="M614 279C614.063 317.866 605.971 356.313 590.247 391.852C589.739 393 589.225 394.141 588.703 395.276C588.446 395.846 588.182 396.41 587.918 396.98C587.653 397.544 587.389 398.114 587.118 398.678C586.77 399.408 586.423 400.132 586.068 400.856C585.63 401.767 585.185 402.671 584.726 403.576C584.67 403.701 584.608 403.826 584.538 403.952C584.156 404.717 583.773 405.482 583.377 406.248C583.294 406.415 583.21 406.582 583.12 406.742C582.668 407.632 582.202 408.523 581.729 409.406V409.413C581.228 410.353 580.725 411.29 580.22 412.224C578.969 414.534 577.682 416.823 576.361 419.091C575.965 419.766 575.575 420.441 575.172 421.109C574.804 421.735 574.435 422.355 574.06 422.974C573.802 423.405 573.545 423.83 573.281 424.254C572.864 424.943 572.439 425.632 572.008 426.32C572.001 426.327 572.001 426.327 572.001 426.334C571.049 427.865 570.075 429.389 569.095 430.898H569.088C568.636 431.601 568.177 432.297 567.718 432.993V433C566.334 435.087 564.923 437.153 563.483 439.199V439.206C563.478 439.206 563.473 439.209 563.47 439.213V439.22L563.456 439.234C562.315 440.869 561.152 442.49 559.965 444.097V444.104C559.207 445.134 558.442 446.163 557.67 447.179C557.038 448.014 556.398 448.847 555.751 449.677C555.619 449.858 555.48 450.032 555.334 450.213V450.22C555.16 450.449 554.986 450.672 554.799 450.902V450.909C552.052 454.422 549.222 457.866 546.309 461.241H546.302C546.149 461.428 545.989 461.609 545.829 461.79C545.676 461.971 545.509 462.152 545.349 462.34H545.342C545.099 462.625 544.848 462.91 544.598 463.196C544.355 463.481 544.098 463.766 543.84 464.051V464.058C528.654 481.203 511.42 496.415 492.525 509.352C490.007 511.085 487.458 512.771 484.876 514.411C484.236 514.821 483.596 515.225 482.95 515.628C482.755 515.76 482.56 515.879 482.366 515.997C482.025 516.213 481.677 516.428 481.33 516.644C480.989 516.853 480.641 517.068 480.294 517.277C478.91 518.126 477.512 518.961 476.115 519.782C475.767 519.991 475.412 520.192 475.058 520.401C474.71 520.603 474.355 520.805 474.001 521.006C473.996 521.014 473.99 521.02 473.983 521.025C473.976 521.029 473.968 521.033 473.959 521.034L473.945 521.041L473.931 521.055H473.924C472.172 522.064 470.413 523.059 468.633 524.019C465.448 525.758 462.231 527.435 458.982 529.049C458.175 529.453 457.361 529.85 456.548 530.246C455.873 530.573 455.192 530.9 454.517 531.22C454.33 531.311 454.149 531.401 453.961 531.485C453.398 531.749 452.835 532.013 452.272 532.271C451.66 532.563 451.041 532.841 450.429 533.12C449.741 533.433 449.059 533.739 448.371 534.045C445.784 535.2 443.17 536.313 440.548 537.385C431.183 541.222 421.612 544.534 411.88 547.306C411.428 547.438 410.969 547.571 410.51 547.696C406.345 548.865 402.149 549.934 397.924 550.903C390.547 552.601 383.102 553.995 375.59 555.085C375.576 555.085 375.555 555.092 375.541 555.092C374.644 555.224 373.74 555.349 372.843 555.474C372.767 555.488 372.683 555.502 372.6 555.509C372.593 555.516 372.586 555.516 372.572 555.509C372.572 555.509 372.572 555.516 372.565 555.509C371.571 555.641 370.577 555.774 369.575 555.899C369.506 555.913 369.436 555.92 369.367 555.927C368.435 556.038 367.496 556.149 366.558 556.254C365.549 556.365 364.541 556.469 363.526 556.574C362.754 556.65 361.982 556.727 361.21 556.796C361.142 556.81 361.072 556.817 361.002 556.817C360.3 556.88 359.597 556.942 358.895 556.998C358.867 556.998 358.832 557.005 358.805 557.005C358.193 557.061 357.581 557.102 356.969 557.151C349.772 557.722 342.506 558.005 335.17 558C327.209 558 319.328 557.668 311.529 557.005C311.501 557.005 311.473 556.998 311.445 556.998C309.783 556.859 308.124 556.706 306.467 556.539C306.029 556.497 305.597 556.448 305.159 556.407C305.076 556.4 304.993 556.393 304.909 556.379C304.777 556.365 304.645 556.351 304.506 556.337C304.436 556.33 304.36 556.323 304.29 556.309C303.713 556.247 303.136 556.184 302.552 556.115C301.905 556.038 301.252 555.961 300.605 555.878C299.958 555.801 299.305 555.718 298.658 555.628C298.519 555.614 298.373 555.6 298.234 555.572C297.761 555.516 297.288 555.453 296.822 555.384C296.593 555.356 296.37 555.321 296.148 555.286C295.696 555.224 295.251 555.161 294.799 555.092C294.785 555.092 294.764 555.085 294.75 555.085C280.551 553.033 266.534 549.871 252.828 545.629H252.822C252.077 545.4 251.334 545.163 250.589 544.927C250.367 544.864 250.144 544.794 249.922 544.718C247.989 544.099 246.068 543.459 244.158 542.798C241.522 541.893 238.906 540.947 236.307 539.959C235.598 539.688 234.896 539.416 234.187 539.145C232.775 538.588 231.37 538.032 229.973 537.461C227.588 536.487 225.219 535.483 222.866 534.449H222.86V534.442C220.662 533.474 218.481 532.477 216.316 531.45C216.252 531.431 216.192 531.403 216.136 531.366C216.129 531.366 216.129 531.359 216.122 531.359C215.642 531.137 215.162 530.907 214.682 530.677L214.668 530.671C202.742 524.95 191.241 518.379 180.256 511.008C176.731 508.65 173.266 506.212 169.861 503.696C167.114 501.671 164.407 499.596 161.74 497.469C148.451 486.901 136.153 475.142 124.998 462.34H124.991V462.333C124.205 461.435 123.44 460.545 122.662 459.64V459.633C122.55 459.508 122.446 459.383 122.342 459.258C121.848 458.68 121.368 458.11 120.889 457.525V457.518C120.235 456.746 119.595 455.971 118.969 455.194C118.83 455.027 118.698 454.867 118.566 454.7H118.559V454.693C118.045 454.067 117.537 453.434 117.036 452.801C116.779 452.488 116.529 452.168 116.278 451.848H116.272V451.841C114.756 449.927 113.27 447.996 111.814 446.045V446.038C111.411 445.502 111.015 444.967 110.625 444.424H110.618C108.755 441.905 106.94 439.357 105.174 436.778V436.771C104.506 435.804 103.846 434.829 103.192 433.848C102.539 432.867 101.892 431.884 101.252 430.898H101.245C100.585 429.883 99.9312 428.862 99.2845 427.837C99.2497 427.781 99.215 427.733 99.1872 427.684C98.5474 426.675 97.917 425.659 97.2959 424.637C96.7952 423.823 96.3015 423.016 95.8218 422.201C95.488 421.652 95.1612 421.109 94.8413 420.553C94.7231 420.365 94.6188 420.177 94.5145 419.996C93.7775 418.737 93.0543 417.477 92.3312 416.211C91.4898 414.722 90.6554 413.219 89.8419 411.716C89.5081 411.097 89.1744 410.471 88.8475 409.845C88.7293 409.643 88.625 409.441 88.5207 409.232C88.1313 408.495 87.742 407.757 87.3595 407.013C86.9771 406.275 86.5947 405.531 86.2192 404.787C85.8437 404.042 85.4682 403.298 85.0997 402.546C84.8215 401.983 84.5434 401.412 84.2722 400.849C84.244 400.801 84.2185 400.753 84.1957 400.702C84.0706 400.438 83.9385 400.181 83.8203 399.916C83.7925 399.876 83.7714 399.831 83.7577 399.784C83.4726 399.2 83.1945 398.622 82.9233 398.038C82.5617 397.286 82.214 396.528 81.8664 395.77C81.6161 395.241 81.3796 394.705 81.1363 394.169C80.7886 393.418 80.4479 392.659 80.1141 391.894C79.7595 391.108 79.4188 390.315 79.078 389.522C78.9877 389.32 78.9042 389.125 78.8208 388.923C78.6608 388.561 78.5079 388.2 78.3549 387.838C77.9446 386.878 77.5414 385.904 77.145 384.937C76.693 383.844 76.2527 382.749 75.8239 381.652C75.4136 380.63 75.015 379.605 74.6279 378.577L74.4819 378.202V378.195C68.4401 362.306 63.8688 345.896 60.8255 329.171V329.164C59.0902 319.615 57.8555 309.982 57.1263 300.304C57.0846 299.775 57.0498 299.247 57.0151 298.718C56.5562 292.171 56.3313 285.598 56.3406 279C56.3406 276.071 56.387 273.156 56.4797 270.254C58.2825 209.597 79.8919 151.2 118.003 103.995C119.679 101.915 121.385 99.8602 123.121 97.8309C174.256 37.9537 250.284 0 335.17 0C434.415 0 521.555 51.8829 570.958 130.024C573.531 134.073 575.993 138.197 578.343 142.394C601.794 184.095 614.076 231.151 614 279Z" fill="#F2F2F2"/>
<path d="M470.19 497.991C469.189 500.76 468.19 503.529 467.194 506.298C467.006 506.827 466.811 507.349 466.623 507.877C464.078 514.932 461.531 521.99 458.982 529.049C458.175 529.453 457.362 529.85 456.548 530.246C455.874 530.573 455.192 530.9 454.518 531.22C454.33 531.311 454.149 531.401 453.961 531.485C453.398 531.749 452.835 532.013 452.272 532.271C451.66 532.563 451.041 532.841 450.429 533.12C449.741 533.433 449.059 533.739 448.371 534.045C448.013 533.112 447.809 532.128 447.766 531.13C447.736 529.563 447.921 527.999 448.315 526.482C448.92 523.977 449.88 521.521 450.512 519.01C450.547 518.891 450.575 518.766 450.603 518.648C452.013 512.651 451.362 506.354 448.753 500.774C447.182 497.448 444.929 494.421 443.948 490.873C443.097 487.541 443.474 484.013 445.012 480.938C445.583 479.745 446.3 478.627 447.147 477.612C447.349 477.354 447.564 477.111 447.787 476.867C449.832 474.619 452.549 473.094 455.533 472.519C461.241 471.503 467.207 474.543 470.399 479.316C471.707 481.234 472.504 483.454 472.715 485.766C473.062 489.948 471.616 494.046 470.19 497.991Z" fill="#E4E4E4"/>
<path d="M454.427 526.253C453.12 523.838 450.929 521.723 450.512 519.01C449.156 510.299 445.888 504.051 440.472 500.509C438.9 499.487 438.65 497.225 437.683 495.597C437.252 494.867 436.814 494.136 436.362 493.42C435.632 492.23 434.872 491.063 434.081 489.92C432.583 487.71 430.931 485.608 429.138 483.63C428.394 482.802 427.608 482.002 426.794 481.244L426.787 481.237C426.28 480.75 425.765 480.284 425.23 479.831C425.021 479.651 424.806 479.47 424.583 479.289L424.569 479.275C423.63 478.46 422.645 477.698 421.621 476.993C419.264 475.399 416.601 474.293 413.868 475.177C412.794 475.545 411.76 476.021 410.781 476.596C410.28 476.881 409.786 477.181 409.293 477.48C408.959 477.681 408.625 477.883 408.291 478.092C408.02 478.252 407.749 478.412 407.478 478.565C405.378 479.776 403.269 480.963 401.15 482.127C400.844 482.301 400.538 482.468 400.225 482.635H400.219C400.003 482.761 399.78 482.879 399.558 482.997C399.134 483.234 398.703 483.47 398.279 483.7C397.006 484.389 395.731 485.07 394.454 485.745C393.801 486.093 393.14 486.427 392.479 486.761C392.173 486.914 391.868 487.067 391.569 487.227H391.562C391.45 487.283 391.346 487.339 391.235 487.394C390.331 487.86 389.441 488.341 388.579 488.862C386.078 490.37 383.905 492.364 382.188 494.728C381.855 495.187 381.535 495.66 381.243 496.147C380.86 496.777 380.512 497.427 380.2 498.095C379.984 498.547 379.783 499 379.602 499.459V499.466C377.892 503.863 377.653 508.697 378.92 513.242V513.249C379.004 513.562 379.094 513.868 379.199 514.174C379.365 514.689 379.553 515.204 379.762 515.705C379.992 516.263 380.252 516.809 380.54 517.34V517.347C382.088 519.988 384.019 522.384 386.27 524.457L386.34 524.527C386.618 524.798 386.903 525.077 387.181 525.348C387.334 525.494 387.494 525.64 387.661 525.779C390.067 527.846 393.954 529.411 396.151 531.533C397.326 532.667 398.014 533.955 397.743 535.562C397.02 539.827 397.18 542.589 397.917 544.363C399.919 549.206 406.205 546.743 410.509 547.696C410.968 547.571 411.427 547.438 411.879 547.306C421.612 544.534 431.183 541.222 440.548 537.385C443.169 536.313 445.784 535.2 448.37 534.045C449.059 533.739 449.74 533.433 450.429 533.12C451.041 532.841 451.659 532.563 452.271 532.271C452.835 532.013 453.398 531.749 453.961 531.485C454.149 531.401 454.33 531.311 454.517 531.22C455.192 530.9 455.873 530.573 456.548 530.246C455.859 528.903 455.143 527.574 454.427 526.253Z" fill="#E4E4E4"/>
<path d="M403.554 458.704C405.015 454.287 403.005 451.373 397.834 449.827C397.657 449.667 397.443 449.553 397.211 449.497C396.979 449.441 396.737 449.444 396.507 449.506C396.277 449.568 396.066 449.687 395.893 449.851C395.72 450.016 395.592 450.221 395.519 450.448L391.004 463.835C386.281 462.626 382.817 463.455 382.064 468.129C383.928 463.368 382.175 460.381 376.931 459.107C376.761 458.937 376.55 458.813 376.319 458.747C376.088 458.68 375.844 458.673 375.609 458.726C375.374 458.779 375.157 458.891 374.977 459.051C374.797 459.211 374.661 459.414 374.58 459.64L371.611 471.698C367.995 477.148 366.219 483.615 366.544 490.15C366.869 496.684 369.277 502.943 373.416 508.008C377.555 513.073 383.207 516.677 389.543 518.294C395.879 519.91 402.566 519.452 408.623 516.988C414.68 514.524 419.789 510.184 423.201 504.602C426.613 499.021 428.147 492.492 427.58 485.974C427.014 479.456 424.375 473.292 420.051 468.384C415.727 463.476 409.945 460.084 403.554 458.704Z" fill="#E4E4E4"/>
<path d="M400.679 496.857C400.069 497.183 399.354 497.255 398.691 497.055C398.028 496.855 397.472 496.4 397.144 495.79C397.097 495.703 397.088 495.601 397.116 495.506C397.145 495.412 397.21 495.332 397.297 495.286C397.384 495.239 397.486 495.229 397.58 495.257C397.675 495.285 397.754 495.35 397.801 495.437C398.035 495.872 398.433 496.197 398.906 496.339C399.379 496.482 399.889 496.43 400.325 496.196C400.76 495.963 401.085 495.566 401.228 495.092C401.371 494.619 401.321 494.108 401.088 493.672C401.041 493.585 401.031 493.483 401.06 493.389C401.089 493.294 401.154 493.215 401.241 493.168C401.327 493.121 401.429 493.111 401.524 493.139C401.618 493.168 401.698 493.233 401.745 493.319C402.072 493.93 402.143 494.645 401.943 495.309C401.743 495.972 401.288 496.528 400.679 496.857Z" fill="white"/>
<path d="M397.947 491.368C399.399 490.588 400.333 489.503 400.033 488.944C399.734 488.385 398.314 488.564 396.862 489.344C395.41 490.124 394.475 491.209 394.775 491.767C395.075 492.326 396.495 492.147 397.947 491.368Z" fill="white"/>
<path d="M382.512 492.314C382.709 491.362 383.112 490.463 383.693 489.684C384.274 488.904 385.02 488.261 385.876 487.801C386.733 487.341 387.68 487.075 388.651 487.022C389.622 486.968 390.592 487.128 391.494 487.491C391.948 486.103 391.98 484.611 391.587 483.205C391.193 481.798 390.392 480.54 389.283 479.589C388.175 478.638 386.81 478.037 385.361 477.863C383.911 477.688 382.443 477.948 381.141 478.608C379.839 479.269 378.762 480.301 378.046 481.574C377.33 482.847 377.008 484.304 377.119 485.761C377.231 487.217 377.772 488.608 378.673 489.757C379.575 490.906 380.797 491.761 382.184 492.215C382.293 492.251 382.402 492.284 382.512 492.314Z" fill="white"/>
<path d="M384.718 489.633C386.12 489.633 387.257 488.496 387.257 487.092C387.257 485.689 386.12 484.552 384.718 484.552C383.315 484.552 382.179 485.689 382.179 487.092C382.179 488.496 383.315 489.633 384.718 489.633Z" fill="#3F3D56"/>
<path d="M400.088 483.171C400.284 482.219 400.687 481.321 401.269 480.541C401.85 479.761 402.595 479.118 403.452 478.658C404.309 478.198 405.256 477.932 406.227 477.879C407.197 477.825 408.168 477.986 409.07 478.349C409.524 476.96 409.556 475.468 409.163 474.062C408.769 472.655 407.967 471.397 406.859 470.446C405.751 469.495 404.386 468.894 402.936 468.72C401.487 468.545 400.018 468.805 398.716 469.466C397.414 470.126 396.337 471.158 395.621 472.431C394.906 473.705 394.583 475.161 394.695 476.618C394.807 478.074 395.348 479.465 396.249 480.614C397.151 481.763 398.373 482.618 399.76 483.072C399.869 483.108 399.978 483.141 400.088 483.171Z" fill="white"/>
<path d="M403.225 480.348C404.627 480.348 405.764 479.211 405.764 477.808C405.764 476.405 404.627 475.267 403.225 475.267C401.823 475.267 400.686 476.405 400.686 477.808C400.686 479.211 401.823 480.348 403.225 480.348Z" fill="#3F3D56"/>
<path d="M415.967 477.632L407.298 486.471L408.173 487.331L416.842 478.491L415.967 477.632Z" fill="white"/>
<path d="M418.721 481.909L408.247 488.507L408.9 489.545L419.375 482.947L418.721 481.909Z" fill="white"/>
<path d="M388.699 496.458L376.545 498.799L376.777 500.004L388.931 497.662L388.699 496.458Z" fill="white"/>
<path d="M389.87 498.375L378.584 503.46L379.088 504.579L390.374 499.493L389.87 498.375Z" fill="white"/>
<path d="M31.9527 309.675C8.17889 288.266 -6.21636 254.22 2.63025 223.465C22.5947 251.964 51.9901 272.479 85.6155 281.379C98.5958 284.764 113.385 287.177 121.282 298.027C126.196 304.778 127.337 313.699 126.174 321.969C125.011 330.239 121.76 338.049 118.538 345.754L118.709 347.832C87.3132 341.719 55.7265 331.085 31.9527 309.675Z" fill="#E6E6E6"/>
<path d="M3.29422 223.562C9.33652 249.067 23.5609 272.805 43.5202 289.841C47.8354 293.524 52.5331 296.885 57.8027 299.057C62.9554 301.135 68.5703 301.795 74.0639 300.968C79.2018 300.299 84.3797 299.02 89.5905 299.613C95.0829 300.238 99.6715 303.317 102.877 307.751C106.799 313.176 108.539 319.688 110.019 326.116C111.663 333.252 113.257 340.69 117.966 346.522C118.536 347.229 117.407 348.074 116.838 347.368C108.645 337.221 109.766 323.175 103.833 311.962C101.065 306.73 96.7035 302.301 90.6969 301.202C85.4444 300.241 80.1037 301.555 74.9074 302.277C69.4512 303.035 64.1724 302.852 58.9379 301.002C53.5832 299.109 48.7443 295.926 44.354 292.369C34.4585 284.23 25.9035 274.584 19.0024 263.786C11.058 251.505 5.27153 237.955 1.89343 223.723C1.68471 222.841 3.08687 222.687 3.29422 223.562Z" fill="white"/>
<path d="M36.7406 284.646C33.3811 287.615 29.0761 289.293 24.5945 289.379C20.1129 289.466 15.7464 287.956 12.2748 285.118C11.5744 284.542 12.4369 283.426 13.1382 284.003C16.366 286.651 20.4336 288.058 24.6067 287.968C28.7798 287.879 32.7837 286.3 35.8956 283.517C36.5725 282.913 37.4137 284.045 36.7406 284.646Z" fill="white"/>
<path d="M71.5035 301.65C72.1518 292.504 69.3312 283.45 63.6042 276.293C63.0362 275.584 64.1652 274.739 64.7325 275.447C70.6783 282.906 73.5943 292.334 72.8988 301.85C72.8319 302.757 71.4369 302.552 71.5035 301.65Z" fill="white"/>
<path d="M12.9015 251.196C14.4407 250.318 15.7378 249.072 16.6764 247.568C17.615 246.065 18.1657 244.351 18.2791 242.582C18.3345 241.675 19.7295 241.881 19.6744 242.783C19.5401 244.737 18.9296 246.628 17.8962 248.292C16.8629 249.955 15.4382 251.34 13.7465 252.325C13.5949 252.431 13.4085 252.476 13.2252 252.45C13.0419 252.423 12.8755 252.328 12.7599 252.183C12.6487 252.033 12.6013 251.846 12.6278 251.661C12.6543 251.476 12.7527 251.309 12.9015 251.196Z" fill="white"/>
<path d="M101.915 180.197C101.896 180.765 101.878 181.332 101.869 181.907C101.66 189.539 102.071 197.175 103.097 204.74C103.167 205.326 103.247 205.919 103.334 206.502C106.002 224.701 112.024 242.246 121.093 258.246C124.707 264.61 128.8 270.689 133.337 276.43C139.602 284.36 147.026 292.459 150.214 301.724C150.557 302.686 150.841 303.67 151.062 304.668L121.229 347.462C121.112 347.526 121.005 347.596 120.888 347.66L119.775 349.423C119.52 349.143 119.262 348.848 119.008 348.568C118.859 348.406 118.717 348.235 118.569 348.073C118.472 347.962 118.376 347.851 118.282 347.757C118.25 347.72 118.218 347.683 118.195 347.653C118.101 347.558 118.024 347.46 117.94 347.373C116.493 345.724 115.055 344.062 113.626 342.388C113.616 342.381 113.616 342.381 113.613 342.364C102.757 329.576 92.8726 315.768 85.3968 300.898C85.1721 300.45 84.9372 299.996 84.7261 299.529C81.3935 292.808 78.6156 285.825 76.4199 278.651C75.2303 274.718 74.2404 270.728 73.454 266.696C71.4421 256.273 71.0811 245.598 72.3845 235.062C74.9857 214.06 84.2707 194.125 100.653 181.174C101.073 180.843 101.486 180.521 101.915 180.197Z" fill="#E6E6E6"/>
<path d="M102.391 180.673C91.869 204.677 88.9431 232.2 94.6289 257.826C95.8581 263.366 97.587 268.88 100.487 273.789C103.351 278.553 107.437 282.462 112.321 285.111C116.826 287.672 121.73 289.77 125.534 293.383C129.543 297.19 131.354 302.414 131.245 307.885C131.112 314.58 128.583 320.827 125.898 326.851C122.917 333.539 119.714 340.438 119.964 347.932C119.995 348.84 118.585 348.834 118.555 347.927C118.119 334.89 127.466 324.35 129.475 311.823C130.413 305.978 129.596 299.814 125.461 295.318C121.846 291.386 116.79 289.218 112.207 286.664C107.394 283.983 103.29 280.656 100.223 276.025C97.0867 271.289 95.1388 265.831 93.7734 260.347C90.7698 247.887 89.7429 235.031 90.7302 222.252C91.7762 207.661 95.309 193.356 101.176 179.957C101.539 179.127 102.752 179.849 102.391 180.673Z" fill="white"/>
<path d="M92.3413 249.594C87.8723 249.941 83.4255 248.687 79.7951 246.056C76.1646 243.425 73.587 239.589 72.5224 235.232C72.3101 234.35 73.6703 233.978 73.883 234.862C74.8668 238.921 77.2682 242.494 80.6539 244.937C84.0396 247.38 88.1864 248.531 92.346 248.183C93.25 248.109 93.2402 249.52 92.3413 249.594Z" fill="white"/>
<path d="M109.866 284.113C115.887 277.201 119.083 268.273 118.817 259.108C118.789 258.2 120.199 258.205 120.226 259.112C120.485 268.65 117.141 277.935 110.86 285.113C110.261 285.797 109.27 284.793 109.866 284.113Z" fill="white"/>
<path d="M93.4337 208.525C95.1908 208.751 96.9766 208.537 98.6307 207.902C100.285 207.267 101.755 206.231 102.91 204.887C103.5 204.196 104.49 205.201 103.904 205.887C102.621 207.367 100.995 208.509 99.1694 209.214C97.3435 209.92 95.3726 210.168 93.4291 209.935C93.244 209.929 93.0684 209.852 92.9379 209.72C92.8074 209.589 92.7319 209.413 92.7266 209.228C92.7281 209.041 92.8032 208.862 92.9357 208.731C93.0681 208.599 93.2471 208.525 93.4337 208.525Z" fill="white"/>
<path d="M374.453 183.052C378.597 160.116 371.71 134.09 352.908 120.332C354.117 145.649 346.337 170.578 330.945 190.709C324.981 198.451 317.541 206.44 317.831 216.211C318.011 222.291 321.33 227.936 325.686 232.178C330.042 236.421 335.395 239.466 340.684 242.464L341.512 243.737C356.863 226.206 370.308 205.987 374.453 183.052Z" fill="#E6E6E6"/>
<path d="M352.568 120.684C360.536 138.251 362.77 157.884 358.952 176.794C358.202 180.88 356.813 184.822 354.837 188.474C352.797 191.971 349.858 194.856 346.326 196.831C343.07 198.739 339.519 200.314 336.783 202.981C335.403 204.366 334.331 206.028 333.638 207.858C332.945 209.687 332.646 211.643 332.761 213.596C332.922 218.469 334.822 222.995 336.835 227.356C339.069 232.198 341.467 237.192 341.356 242.651C341.342 243.313 342.369 243.295 342.382 242.634C342.576 233.136 335.67 225.55 334.088 216.446C333.35 212.199 333.886 207.702 336.854 204.389C339.45 201.492 343.111 199.865 346.424 197.962C349.898 196.085 352.859 193.386 355.05 190.101C357.206 186.56 358.744 182.679 359.598 178.622C361.668 169.52 362.294 160.149 361.454 150.852C360.554 140.236 357.845 129.853 353.446 120.151C353.174 119.551 352.298 120.087 352.568 120.684Z" fill="white"/>
<path d="M360.539 170.778C363.797 170.988 367.023 170.033 369.642 168.083C372.261 166.133 374.102 163.315 374.836 160.132C374.982 159.487 373.988 159.229 373.841 159.875C373.164 162.84 371.449 165.465 369.006 167.276C366.564 169.087 363.555 169.965 360.523 169.751C359.864 169.705 359.884 170.733 360.539 170.778Z" fill="white"/>
<path d="M348.105 196.082C343.655 191.105 341.243 184.634 341.35 177.957C341.361 177.296 340.335 177.314 340.324 177.974C340.225 184.922 342.749 191.652 347.391 196.82C347.834 197.312 348.545 196.571 348.105 196.082Z" fill="white"/>
<path d="M359.355 140.881C358.077 141.063 356.775 140.924 355.564 140.477C354.354 140.03 353.273 139.29 352.419 138.322C351.983 137.824 351.272 138.566 351.705 139.06C352.654 140.125 353.848 140.941 355.185 141.438C356.521 141.934 357.958 142.096 359.372 141.908C359.506 141.902 359.633 141.844 359.727 141.747C359.821 141.65 359.874 141.521 359.876 141.386C359.874 141.25 359.817 141.121 359.719 141.026C359.622 140.932 359.491 140.88 359.355 140.881Z" fill="white"/>
<path d="M276.461 139.73C276.725 140.048 276.988 140.367 277.25 140.694C280.772 144.994 283.939 149.574 286.719 154.387C286.94 154.756 287.159 155.133 287.368 155.507C293.944 167.176 298.298 179.965 300.209 193.223C300.964 198.5 301.317 203.827 301.265 209.157C301.192 216.518 300.528 224.494 302.822 231.251C303.054 231.958 303.329 232.651 303.646 233.324L339.897 244.649C339.992 244.633 340.085 244.626 340.181 244.61L341.608 245.128C341.63 244.854 341.646 244.568 341.668 244.294C341.682 244.134 341.687 243.972 341.7 243.813C341.707 243.706 341.713 243.599 341.724 243.503C341.727 243.467 341.728 243.431 341.728 243.404C341.74 243.308 341.741 243.217 341.75 243.129C341.848 241.534 341.936 239.936 342.012 238.334C342.014 238.326 342.014 238.326 342.009 238.315C342.559 226.107 342.095 213.746 339.771 201.849C339.701 201.491 339.634 201.125 339.547 200.762C338.47 195.405 336.957 190.145 335.023 185.034C333.955 182.24 332.747 179.501 331.402 176.828C327.914 169.929 323.364 163.622 317.917 158.138C307.059 147.208 292.827 139.874 277.623 139.729C277.234 139.726 276.852 139.725 276.461 139.73Z" fill="#E6E6E6"/>
<path d="M276.399 140.216C293.331 149.442 306.928 163.772 315.257 181.171C317.117 184.885 318.38 188.869 319 192.976C319.474 196.997 318.864 201.071 317.233 204.776C315.781 208.261 313.893 211.657 313.313 215.435C313.045 217.372 313.189 219.345 313.737 221.223C314.284 223.102 315.222 224.843 316.489 226.333C319.549 230.128 323.79 232.596 328.021 234.866C332.719 237.386 337.638 239.929 340.834 244.354C341.221 244.891 342.03 244.258 341.643 243.723C336.083 236.023 326.004 234.125 319.263 227.81C316.118 224.863 313.841 220.95 314.217 216.516C314.547 212.639 316.491 209.135 317.991 205.619C319.635 202.028 320.376 198.089 320.148 194.146C319.739 190.02 318.632 185.995 316.873 182.241C313.048 173.727 307.91 165.867 301.645 158.95C294.539 151.017 286.129 144.358 276.779 139.261C276.2 138.946 275.824 139.903 276.399 140.216Z" fill="white"/>
<path d="M312.905 175.411C315.632 173.616 317.634 170.91 318.551 167.775C319.469 164.64 319.243 161.281 317.914 158.298C317.642 157.695 316.694 158.088 316.965 158.692C318.208 161.467 318.418 164.596 317.558 167.514C316.697 170.431 314.823 172.945 312.273 174.601C311.72 174.961 312.354 175.769 312.905 175.411Z" fill="white"/>
<path d="M318.201 203.106C311.654 201.813 305.835 198.099 301.903 192.704C301.514 192.169 300.705 192.801 301.093 193.336C305.195 198.942 311.259 202.795 318.075 204.125C318.725 204.251 318.848 203.231 318.201 203.106Z" fill="white"/>
<path d="M293.97 152.254C293.059 153.168 291.936 153.842 290.7 154.214C289.465 154.587 288.157 154.647 286.893 154.388C286.245 154.254 286.123 155.274 286.767 155.408C288.165 155.687 289.61 155.619 290.975 155.21C292.341 154.802 293.586 154.065 294.601 153.064C294.705 152.977 294.772 152.855 294.788 152.721C294.805 152.587 294.77 152.452 294.69 152.343C294.606 152.236 294.483 152.167 294.349 152.15C294.214 152.133 294.078 152.17 293.97 152.254Z" fill="white"/>
<path d="M91.2798 263.01C96.2986 263.01 101.112 265.005 104.661 268.556C108.209 272.107 110.203 276.923 110.203 281.945C110.202 286.337 108.676 290.593 105.885 293.983C103.094 297.373 99.2118 299.687 94.9035 300.529V331.498H82.8247V263.01H91.2798Z" fill="#3F3D56"/>
<path d="M554.8 444.421V450.906C552.054 454.42 549.224 457.864 546.31 461.238C545.997 461.607 545.678 461.968 545.351 462.337C544.857 462.915 544.349 463.485 543.842 464.056V444.421H554.8Z" fill="#CACACA"/>
<path d="M522.648 430.896C520.226 430.899 517.904 431.863 516.191 433.577C514.478 435.291 513.515 437.614 513.512 440.038V453.195C513.515 455.619 514.478 457.942 516.191 459.656C517.904 461.37 520.226 462.334 522.648 462.337H545.351C545.678 461.968 545.998 461.607 546.311 461.238C549.224 457.863 552.054 454.419 554.801 450.906C554.982 450.676 555.162 450.447 555.336 450.217C556.908 448.206 558.451 446.161 559.967 444.101C561.149 442.487 562.324 440.859 563.472 439.217C563.479 439.21 563.486 439.21 563.486 439.203C565.405 436.476 567.275 433.707 569.097 430.896H522.648Z" fill="#3F3D56"/>
<path d="M581.105 318.28C579.709 317.798 578.243 317.553 576.766 317.556H573.032C571.672 317.557 570.32 317.761 569.02 318.162C566.279 319.024 563.883 320.738 562.181 323.055C560.48 325.372 559.56 328.172 559.557 331.047V440.803C559.557 441.214 559.578 441.618 559.612 442.014C559.673 442.718 559.791 443.417 559.967 444.101C561.149 442.487 562.324 440.859 563.471 439.217C563.478 439.21 563.485 439.21 563.485 439.203C565.404 436.476 567.275 433.707 569.097 430.896C570.077 429.386 571.051 427.862 572.003 426.332C578.887 415.281 584.984 403.758 590.249 391.85V331.047C590.246 328.231 589.363 325.486 587.723 323.196C586.083 320.907 583.769 319.188 581.105 318.28Z" fill="#3F3D56"/>
<path d="M120.89 444.421V457.523C117.761 453.779 114.737 449.953 111.816 446.043C111.413 445.507 111.016 444.964 110.62 444.421H120.89Z" fill="#CACACA"/>
<path d="M142.084 430.896H101.247C102.533 432.879 103.843 434.838 105.176 436.775C106.942 439.356 108.757 441.905 110.62 444.421C111.017 444.964 111.413 445.507 111.816 446.042C114.744 449.953 117.768 453.779 120.89 457.523C121.474 458.232 122.065 458.935 122.663 459.638C123.428 460.542 124.205 461.442 124.993 462.337H142.084C144.506 462.334 146.827 461.37 148.539 459.656C150.251 457.942 151.213 455.618 151.214 453.195V440.038C151.213 437.615 150.251 435.291 148.539 433.577C146.827 431.863 144.506 430.899 142.084 430.896Z" fill="#3F3D56"/>
<path d="M97.9232 319.08C95.998 318.081 93.8616 317.559 91.693 317.556H87.966C86.2024 317.554 84.4558 317.902 82.8274 318.579C80.3604 319.599 78.2509 321.328 76.7657 323.547C75.2805 325.766 74.4863 328.376 74.4834 331.047V378.199C81.5042 396.668 90.4762 414.334 101.247 430.896C102.533 432.879 103.843 434.838 105.176 436.775V331.047C105.174 328.58 104.497 326.161 103.218 324.051C101.94 321.941 100.109 320.222 97.9232 319.08Z" fill="#3F3D56"/>
<path d="M249.829 522.856L262.078 520.044L257.067 471.43L238.989 475.581L249.829 522.856Z" fill="#9E616A"/>
<path d="M260.973 480.677C260.722 479.821 260.552 478.943 260.465 478.054C260.363 477.005 260.158 475.968 259.853 474.958C259.505 474.04 259.075 473.155 258.567 472.314C258.323 471.869 258.066 471.424 257.837 470.972C257.606 470.52 257.406 470.052 257.239 469.573C250.07 448.387 240.064 419.597 233.124 402.745C229.043 392.831 203.941 389.533 180.258 388.691C177.372 388.587 174.508 388.517 171.705 388.482C170.739 388.468 169.779 388.454 168.827 388.447C166.393 388.434 164.022 388.434 161.741 388.461C161.442 388.461 161.143 388.461 160.844 388.468C159.182 388.482 157.572 388.505 156.012 388.538C145.29 388.747 137.411 389.234 136.007 389.324L123.498 381.455L121.057 379.917L120.8 381.455L118.832 393.186L115.474 413.203L123.894 415.568L129.359 417.099L161.741 426.186L168.625 428.12L168.667 428.134L180.258 428.113L211.951 428.057L213.481 432.113C212.932 432.967 212.57 433.928 212.421 434.932C212.272 435.936 212.338 436.961 212.614 437.937C212.891 438.914 213.373 439.821 214.027 440.597C214.681 441.373 215.493 442.001 216.409 442.439L217.598 443.002L232.081 481.352C232.126 484.821 233.208 488.197 235.19 491.044C235.433 491.399 235.697 491.747 235.975 492.088L236.295 492.471L241.865 503.373L245.182 502.608L259.297 499.373L259.366 499.233C259.373 499.213 259.554 498.83 259.818 498.162V498.141C260.924 495.379 263.372 487.83 260.973 480.677Z" fill="#2F2E41"/>
<path d="M295.385 526.09C294.857 523.753 293.873 521.543 292.489 519.588C291.105 517.633 289.347 515.972 287.319 514.699C285.29 513.426 283.03 512.568 280.668 512.173C278.307 511.778 275.89 511.854 273.558 512.397L263.775 507.979L261.035 509.907L249.673 517.88L248.735 518.096L245.689 518.791L249.896 537.139L295.524 526.667L295.385 526.09Z" fill="#2F2E41"/>
<path d="M234.863 497.8L230.726 531.364L230.587 532.463L229.975 537.466C227.59 536.492 225.212 535.483 222.861 534.446C220.664 533.479 218.483 532.482 216.318 531.454V497.807L234.863 497.8Z" fill="#9E616A"/>
<path d="M145.085 267.063C158.938 267.063 170.168 255.826 170.168 241.965C170.168 228.104 158.938 216.867 145.085 216.867C131.232 216.867 120.002 228.104 120.002 241.965C120.002 255.826 131.232 267.063 145.085 267.063Z" fill="#9E616A"/>
<path d="M237.526 510.609C236.831 509.656 236.108 508.661 236.066 507.708C235.906 504.347 235.739 501.022 235.565 497.765C235.44 495.49 235.315 493.243 235.19 491.044C235.176 490.766 235.155 490.488 235.141 490.216C234.925 486.578 236.003 482.737 237.039 479.015C237.38 477.797 237.721 476.566 238.027 475.334C238.792 472.59 239.113 469.74 238.979 466.894C237.199 444.359 229.245 423.166 225.678 419.597C220.254 414.17 195.729 401.632 180.258 394.007C177.512 392.65 175.05 391.453 173.034 390.479C171.247 389.609 169.807 388.921 168.827 388.447C168.076 388.093 167.589 387.863 167.422 387.78L167.339 387.738L161.741 388.364L160.844 388.468L155.908 389.025L123.79 392.629L118.832 393.186L111.816 393.979L105.482 394.688L105.245 394.709L105.204 394.946C105.204 394.953 105.19 395.002 105.176 395.092C104.087 401.97 104.087 408.976 105.176 415.854C105.996 420.522 107.547 425.267 110.3 429.261C110.676 429.803 111.065 430.325 111.483 430.826C111.497 430.853 111.516 430.876 111.538 430.896C111.629 431.007 111.719 431.118 111.816 431.23V431.237C114.966 434.902 119.194 437.476 123.894 438.591C124.59 438.779 125.299 438.932 126.029 439.057C133.81 440.435 142.599 441.701 151.214 442.814C154.781 443.273 158.32 443.705 161.741 444.108C168.59 444.915 174.988 445.597 180.258 446.14C187.643 446.891 192.83 447.358 193.984 447.455L206.883 507.666C205.87 509.379 205.467 511.384 205.737 513.356C206.007 515.327 206.935 517.15 208.371 518.527L209.428 519.55L210.651 525.283L214.684 530.682L215.192 531.364H232.985L233.083 531.245C233.145 531.162 239.403 523.119 238.979 513.538C238.938 512.55 238.249 511.611 237.526 510.609Z" fill="#2F2E41"/>
<path d="M237.04 308.814C235.693 308.446 234.281 308.377 232.904 308.614C231.527 308.85 230.219 309.386 229.071 310.183C227.924 310.98 226.965 312.019 226.262 313.227C225.56 314.435 225.13 315.782 225.004 317.174L204.163 323.692L205.033 337.331L234.335 327.713C236.686 327.77 238.976 326.962 240.772 325.442C242.567 323.922 243.743 321.795 244.077 319.466C244.41 317.136 243.878 314.765 242.581 312.802C241.284 310.839 239.313 309.42 237.04 308.814Z" fill="#9E616A"/>
<path d="M223.442 331.384L207.866 337.283L207.468 338.056C206.995 338.974 206.346 339.789 205.558 340.456C204.77 341.123 203.859 341.628 202.876 341.943C201.893 342.257 200.858 342.375 199.829 342.289C198.801 342.203 197.8 341.916 196.882 341.442L161.872 354.701C161.872 354.701 146.237 339.046 135.105 325.074L138.899 301.725C139.778 296.307 141.646 291.098 144.409 286.357C167.237 291.366 180.342 323.298 180.342 323.298L221.485 315.443L223.442 331.384Z" fill="#81819E"/>
<path d="M141.521 265.722C135.241 267.419 128.318 265.163 123.418 260.883C118.517 256.603 115.452 250.539 113.685 244.275C112.392 239.688 111.778 234.595 113.82 230.288C115.861 225.981 121.355 223.076 125.594 225.251C122.979 222.203 124.285 217.161 127.339 214.553C130.393 211.946 134.587 211.198 138.581 210.789C144.377 210.196 150.364 210.13 155.88 212.009C161.395 213.888 166.407 217.996 168.133 223.564C169.896 224.386 171.881 224.599 173.779 224.17C175.676 223.741 177.377 222.695 178.616 221.196C178.936 222.918 178.679 224.698 177.886 226.26C177.093 227.821 175.808 229.078 174.229 229.835L182.68 227.094C184.133 230.172 181.586 233.982 178.33 234.967C175.073 235.953 171.558 234.876 168.467 233.452C165.377 232.027 162.382 230.227 159.025 229.671C155.668 229.116 151.725 230.195 150.173 233.225C149.359 234.811 149.317 236.669 148.845 238.389C148.373 240.108 147.177 241.891 145.4 242.032C144.278 242.121 143.179 241.522 142.059 241.645C141.373 241.78 140.74 242.113 140.239 242.602C139.739 243.092 139.391 243.717 139.24 244.401C138.962 245.773 138.958 247.188 139.23 248.562L141.377 264.98L141.521 265.722Z" fill="#2F2E41"/>
<path d="M173.034 390.479L171.706 388.482L162.013 373.934L161.818 373.649L164.815 358.091L165.746 353.235L167.784 342.666L167.193 318.475L166.769 301.359L166.706 298.673L164.557 292.119C163.539 289.054 161.902 286.231 159.75 283.825C157.597 281.418 154.973 279.479 152.041 278.128L137.578 271.504C135.876 270.729 133.936 270.662 132.185 271.318C130.433 271.974 129.014 273.299 128.239 275.002C128.174 275.144 128.114 275.289 128.059 275.435C126.078 275.706 117.476 277.154 110.182 282.817C105.072 286.707 101.505 292.283 100.114 298.555C100.1 298.604 100.093 298.653 100.079 298.701C99.1125 303.022 98.3893 309.84 97.9235 319.08C97.6106 325.189 97.4135 332.346 97.3324 340.551C97.2027 354.229 97.9715 367.9 99.634 381.476C99.7939 382.77 99.9608 384.057 100.135 385.351C100.281 386.437 101.324 387.473 102.332 388.468C103.257 389.38 104.209 390.326 104.341 391.182C104.46 391.933 103.98 392.719 103.41 393.54C103.34 393.645 103.264 393.749 103.194 393.854C102.485 394.862 101.755 395.913 101.942 397.019C102.381 399.51 102.638 402.043 102.881 404.492C103.153 407.864 103.641 411.215 104.341 414.525C104.585 415.54 104.863 416.563 105.176 417.586C105.906 419.986 106.789 422.38 107.651 424.717C108.395 426.749 109.167 428.836 109.821 430.896C109.946 431.278 110.064 431.654 110.175 432.03L110.231 432.225L110.433 432.259H110.446C110.72 431.771 111.047 431.314 111.42 430.896C111.437 430.869 111.458 430.846 111.482 430.826C111.58 430.708 111.691 430.583 111.816 430.451C113.339 428.788 116.649 425.803 123.894 420.772C125.514 419.652 127.329 418.435 129.36 417.099C136.807 412.222 147.209 405.869 161.741 397.666C165.385 395.607 169.295 393.429 173.472 391.133L173.034 390.479Z" fill="#81819E"/>
<path d="M251.029 543.533C249.34 541.836 247.332 540.49 245.121 539.574C242.909 538.658 240.538 538.19 238.145 538.196L230.586 532.463L229.592 531.705L222.861 534.446C225.212 535.483 227.59 536.491 229.975 537.465C237.436 540.513 245.054 543.236 252.83 545.634C252.284 544.889 251.682 544.186 251.029 543.533Z" fill="#2F2E41"/>
<path d="M418.905 522.383L409.438 517.852L422.442 478.26L436.413 484.947L418.905 522.383Z" fill="#FFB6B6"/>
<path d="M482.367 516.001C479.614 517.72 476.826 519.39 474.002 521.011V521.032L473.961 521.039L473.947 521.046L472.876 521.31L471.339 517.247L467.793 507.875L458.128 482.34L473.154 478.632L474.002 482.076L480.358 507.868L482.18 515.243L482.367 516.001Z" fill="#FFB6B6"/>
<path d="M444.044 350.298C445.394 352.492 447.548 354.071 450.046 354.698C452.543 355.325 455.187 354.95 457.413 353.654C457.86 353.383 458.284 353.075 458.681 352.734L488.609 369.919L487.309 352.278L459.088 338.663C457.553 337.12 455.549 336.13 453.391 335.849C451.232 335.567 449.042 336.011 447.162 337.109C445.011 338.402 443.461 340.496 442.853 342.932C442.245 345.369 442.629 347.946 443.921 350.099C443.961 350.166 444.002 350.232 444.044 350.298Z" fill="#FFB6B6"/>
<path d="M475.742 363.448L481.032 366.674L504.792 381.171C506.351 382.147 508.088 382.807 509.902 383.112C511.716 383.417 513.573 383.361 515.365 382.948C517.158 382.535 518.852 381.772 520.35 380.704C521.849 379.636 523.122 378.283 524.098 376.723L524.106 376.71C525.865 373.81 526.487 370.361 525.853 367.028L515.293 314.239C514.903 312.166 514.07 310.203 512.852 308.482C511.633 306.761 510.058 305.324 508.234 304.269C506.409 303.213 504.378 302.565 502.28 302.367C500.182 302.169 498.066 302.427 496.076 303.123C492.732 304.299 489.962 306.705 488.328 309.852C486.694 313 486.32 316.652 487.282 320.065L498.324 357.529L481.399 349.633L475.742 363.448Z" fill="#81819E"/>
<path d="M573.165 415.499C573.158 415.478 573.144 415.401 573.123 415.283L573.102 415.207C573.053 414.956 572.998 414.678 572.935 414.372C571.516 407.322 569.694 400.36 567.477 393.52C566.163 389.331 564.423 385.288 562.283 381.455C562.213 381.33 562.137 381.205 562.06 381.08L561.803 380.662L559.64 381.455L559.557 381.483L526.681 393.541L517.176 397.026L516.877 397.138L515.257 403.747L492.527 400.804L474.003 398.404L468.683 397.715C466.377 397.414 464.035 397.576 461.792 398.19C459.549 398.804 457.45 399.858 455.618 401.291C453.706 402.774 452.109 404.623 450.919 406.731C449.728 408.838 448.969 411.161 448.686 413.565C448.616 414.093 448.574 414.629 448.553 415.158L446.947 475.112V475.188L447.691 476.677L463.232 507.875H474.003L480.358 507.868H485.525L474.782 480.671L475.025 480.302C476.036 478.752 476.673 476.987 476.887 475.149C477.1 473.31 476.884 471.447 476.256 469.706L477.466 466.199C479.976 458.956 478.787 455.477 477.285 451.08C475.936 447.505 475.143 443.743 474.935 439.927L474.684 434.966C480.991 436.072 486.867 437.304 492.527 438.542C494.418 438.953 496.291 439.368 498.145 439.788C503.422 440.964 508.519 442.098 513.512 443.044C523.622 444.971 533.308 446.147 543.258 445.417C543.453 445.403 543.648 445.389 543.842 445.368C546.262 445.173 548.696 444.86 551.157 444.422C552.541 444.171 553.932 443.886 555.336 443.552C555.726 443.454 556.122 443.357 556.511 443.26C557.593 442.974 558.634 442.556 559.613 442.014C561.004 441.237 562.299 440.298 563.472 439.217C563.479 439.21 563.486 439.21 563.486 439.203C565.405 436.476 567.275 433.707 569.097 430.896C570.077 429.386 571.051 427.862 572.003 426.332C573.394 422.512 573.922 418.658 573.165 415.499Z" fill="#2F2E41"/>
<path d="M573.394 404.234C573.29 403.789 573.158 403.337 573.019 402.898C571.915 399.578 570.629 396.322 569.166 393.144C567.525 389.526 565.558 385.65 563.214 381.455C562.081 379.423 560.862 377.311 559.557 375.117C558.903 374.017 558.224 372.897 557.52 371.756C557.492 371.704 557.462 371.653 557.429 371.603L557.227 371.269L524.7 375.625L512.587 377.246L511.864 383.285L511.69 384.781C511.683 384.781 511.683 384.781 511.69 384.788L511.203 388.865V388.872L510.557 394.257L510.501 394.25L492.527 391.919L474.003 389.519L464.053 388.232C461.747 387.931 459.404 388.092 457.161 388.706C454.918 389.32 452.819 390.375 450.987 391.808C449.076 393.291 447.478 395.14 446.288 397.247C445.098 399.354 444.338 401.677 444.055 404.081C443.992 404.568 443.95 405.069 443.93 405.563L434.542 427.82C428.925 441.132 425.348 455.215 423.932 469.594L417.048 491.615L418.028 491.705L432.616 493.062L436.469 493.424L444.952 481.032C445.918 479.62 446.836 478.166 447.691 476.677C449.099 474.245 450.351 471.726 451.439 469.135L469.789 425.441C471.208 425.685 472.612 425.917 474.003 426.137C480.435 427.18 486.609 428.032 492.527 428.69C511.766 430.84 528.427 431.007 543.258 429.184C547.423 428.676 551.449 428.008 555.336 427.18C556.762 426.881 558.169 426.559 559.557 426.213C559.884 426.137 560.204 426.06 560.523 425.977C563.397 425.235 566.039 423.784 568.207 421.757C570.376 419.729 572.001 417.19 572.935 414.371C574.05 411.105 574.209 407.588 573.394 404.234Z" fill="#2F2E41"/>
<path d="M504.225 272.826C516.651 272.826 526.725 262.522 526.725 249.811C526.725 237.1 516.651 226.795 504.225 226.795C491.799 226.795 481.725 237.1 481.725 249.811C481.725 262.522 491.799 272.826 504.225 272.826Z" fill="#FFB6B6"/>
<path d="M557.651 372.529C557.617 372.271 557.575 372.014 557.519 371.756C556.984 368.931 555.593 366.162 554.251 363.477C552.972 360.916 551.755 358.495 551.254 356.088C550.761 353.715 551.053 351.336 551.338 349.04C551.644 346.549 551.964 343.975 551.247 341.477C547.615 328.721 542.626 316.391 536.367 304.699C534.788 299.558 531.76 294.981 527.647 291.519C523.534 288.056 518.51 285.854 513.178 285.176C513.8 284.013 514.059 282.689 513.922 281.377C513.835 280.529 513.58 279.707 513.173 278.958C512.766 278.209 512.215 277.549 511.551 277.015C510.913 276.5 510.179 276.118 509.393 275.888C508.607 275.659 507.782 275.588 506.968 275.679L496.511 276.855C494.834 277.065 493.308 277.93 492.265 279.26C491.222 280.59 490.746 282.279 490.941 283.958C491 284.475 491.116 284.984 491.289 285.475C481.582 297.846 476.596 309.117 476.137 319.776V319.783C476.082 321.014 476.088 322.247 476.158 323.477C476.378 327.457 477.242 331.374 478.717 335.076C480.458 339.353 482.789 343.364 485.642 346.994C486.227 347.732 486.831 348.455 487.457 349.165C488.041 349.861 488.695 350.591 489.418 351.357L491.247 354.223L492.95 356.902L502.059 377.935L506.697 377.782L507.344 382.408L507.497 383.487L510.501 394.25L510.723 395.057L514.833 393.102L539.35 381.455L557.679 372.744L557.651 372.529Z" fill="#81819E"/>
<path opacity="0.2" d="M478.992 334.964C481.083 340.088 484.022 344.822 487.685 348.968C488.313 349.718 488.975 350.455 489.669 351.192L493.228 356.78C506.348 346.94 516.979 308.194 516.979 308.194L502.175 305.312L478.992 334.964Z" fill="black"/>
<path d="M470.03 274.977C471.326 277.205 471.703 279.851 471.079 282.352C470.455 284.854 468.88 287.013 466.69 288.37C466.24 288.639 465.769 288.87 465.281 289.061L466.329 323.573L451.393 314.165L452.688 282.835C452.052 280.75 452.124 278.513 452.893 276.473C453.662 274.434 455.083 272.706 456.936 271.56C459.078 270.263 461.647 269.871 464.078 270.47C466.509 271.069 468.603 272.609 469.899 274.753C469.943 274.827 469.987 274.901 470.03 274.977Z" fill="#FFB6B6"/>
<path d="M467.642 310.546L451.217 312.883L451.923 346.919C451.964 349.347 452.625 351.724 453.842 353.824C455.06 355.925 456.795 357.679 458.881 358.92C461.429 360.42 464.396 361.051 467.334 360.717C470.272 360.383 473.022 359.103 475.17 357.069L513.949 319.747C516.677 317.157 518.31 313.619 518.511 309.861C518.713 306.104 517.468 302.412 515.032 299.544C512.645 296.718 509.234 294.955 505.549 294.645C501.864 294.335 498.206 295.502 495.381 297.89C495.271 297.984 495.162 298.079 495.054 298.176C494.671 298.519 494.306 298.882 493.962 299.264L468.356 328.739L467.642 310.546Z" fill="#81819E"/>
<path d="M482.785 515.132L482.18 515.243L474.002 516.753L471.339 517.247L467.146 518.019L468.635 524.023C470.422 523.056 472.188 522.061 473.947 521.046L473.961 521.039L474.002 521.032V521.011C476.826 519.397 479.614 517.727 482.367 516.001C482.562 515.883 482.757 515.765 482.951 515.633L482.785 515.132Z" fill="#2F2E41"/>
<path d="M421.929 515.918L411.687 511.006L410.08 510.233L407.515 516.537L389.603 520.482C388.717 520.676 387.917 521.149 387.319 521.831C386.721 522.512 386.356 523.368 386.278 524.272C386.201 525.176 386.414 526.081 386.887 526.855C387.36 527.629 388.068 528.231 388.907 528.574L406.409 535.719L411.965 530.717L410.602 537.431L417.194 540.123L424.418 517.114L421.929 515.918Z" fill="#2F2E41"/>
<path d="M564.433 239.829C560.608 235.367 558.79 229.446 555.732 224.378C552.675 219.31 547.354 214.775 541.734 215.954C537.859 216.767 534.864 220.188 533.349 224.002C531.833 227.817 531.549 232.023 531.283 236.143C531.377 227.675 525.801 219.466 518.121 216.764C510.44 214.062 501.249 217.076 496.423 223.879C494.316 221.926 491.567 220.814 488.696 220.753C485.825 220.693 483.032 221.689 480.846 223.552C476.529 227.412 475.574 234.76 478.749 239.685C481.923 244.609 488.799 246.443 493.844 243.712L495.628 245.354C494.624 248.868 496.571 253.018 499.844 254.341C502.498 255.414 506.244 255.235 507.238 258.022C507.932 259.969 506.634 262.048 505.254 263.544C503.875 265.04 502.237 266.586 502.071 268.656C501.82 271.78 505.047 273.969 507.98 274.628C515.053 276.218 522.9 272.94 526.977 266.695C527.055 266.575 527.141 266.454 527.233 266.333C529.52 263.407 531.187 260.044 532.131 256.452C533.076 252.859 533.278 249.111 532.727 245.437C532.497 243.994 532.728 242.92 533.723 242.578C538.022 241.101 550.066 244.202 553.711 247.005C557.357 249.807 560.276 253.517 563.787 256.5C567.298 259.484 571.772 261.785 576.231 260.973C579.801 260.322 582.839 257.728 584.882 254.6C586.925 251.471 588.101 247.824 589.154 244.2C581.258 248.764 570.452 246.853 564.433 239.829Z" fill="#2F2E41"/>
<path d="M492.524 377.02V509.354C490.007 511.086 487.457 512.772 484.875 514.412V385.794C484.875 382.064 483.623 379.038 482.087 379.031H366.32C364.777 379.038 363.532 382.064 363.525 385.794V556.575C361.982 556.728 360.438 556.874 358.894 557C358.254 557.055 357.608 557.104 356.968 557.153C356.6 556.471 356.238 555.782 355.876 555.086V377.02C355.876 375.99 355.918 374.954 355.988 373.931C356.614 365.248 359.722 358.903 363.358 358.889H485.042C485.482 358.892 485.918 358.984 486.321 359.16C489.367 360.454 491.773 366.132 492.378 373.472C492.475 374.641 492.531 375.83 492.524 377.02Z" fill="#E4E4E4"/>
<path d="M306.779 377.02V556.046C306.674 556.213 306.57 556.373 306.466 556.54C303.851 556.276 301.249 555.972 298.657 555.629V385.794C298.657 382.064 297.329 379.038 295.695 379.031H172.822C171.188 379.038 169.86 382.064 169.86 385.794V503.697C167.114 501.673 164.407 499.597 161.739 497.47V377.02C161.739 375.99 161.78 374.954 161.857 373.931C162.518 365.248 165.82 358.903 169.686 358.889H298.831C299.296 358.89 299.757 358.982 300.187 359.16C303.42 360.454 305.979 366.132 306.626 373.472C306.73 374.641 306.779 375.83 306.779 377.02Z" fill="#E4E4E4"/>
<path d="M265.6 317.526L273.653 352.978L278.798 358.618H282.511L267.211 294.158L266.454 305.109V305.117L265.6 317.526Z" fill="#3F3D56"/>
<path d="M292.416 360.429C292.393 360.375 292.362 360.323 292.325 360.276C292.251 360.109 292.145 359.957 292.013 359.831L291.074 358.892L286.137 353.945C285.774 353.59 285.288 353.39 284.781 353.388H284.76L281.277 353.409L278.28 353.43L274.094 353.458L245.585 353.639L226.846 353.757C226.338 353.763 225.853 353.969 225.496 354.329C225.138 354.69 224.936 355.176 224.934 355.684C224.937 355.965 224.998 356.242 225.114 356.498L225.476 357.271L226.234 358.892L227.221 361.014L227.708 362.057C227.863 362.39 228.11 362.671 228.419 362.868C228.728 363.065 229.087 363.17 229.453 363.171H290.65C290.972 363.164 291.287 363.079 291.568 362.922C291.85 362.765 292.088 362.542 292.263 362.271C292.437 362 292.542 361.69 292.569 361.369C292.596 361.048 292.543 360.725 292.416 360.429Z" fill="#3F3D56"/>
<path opacity="0.17" d="M227.222 361.012L227.705 362.059C227.862 362.391 228.11 362.671 228.419 362.867C228.728 363.064 229.086 363.169 229.453 363.171H290.652C290.974 363.166 291.289 363.08 291.57 362.924C291.851 362.767 292.09 362.543 292.264 362.272C292.438 362.002 292.543 361.692 292.57 361.371C292.596 361.05 292.543 360.728 292.415 360.432C292.394 360.377 292.364 360.325 292.327 360.279L227.222 361.012Z" fill="black"/>
<path opacity="0.17" d="M266.454 305.109V305.117L279.556 358.618H282.511L267.211 294.158L266.454 305.109Z" fill="black"/>
<path d="M287.006 155.389L285.087 155.131C284.56 155.062 284.028 155.205 283.606 155.528L282.459 156.411L269.685 172.4C269.264 172.726 268.988 173.207 268.92 173.736L268.204 179.177L250.376 314.913C250.312 315.416 250.439 315.924 250.731 316.339L259.13 339.508L259.38 339.869L259.923 340.642C260.202 341.034 260.611 341.315 261.077 341.435L262.294 341.741C262.57 341.81 262.858 341.82 263.139 341.77C263.419 341.719 263.686 341.61 263.921 341.449C264.157 341.29 264.356 341.083 264.505 340.84C264.654 340.598 264.749 340.326 264.783 340.043L266.96 323.498V323.491L268.35 312.874L269.525 303.92V303.913L288.744 157.643C288.814 157.115 288.671 156.581 288.347 156.158C288.022 155.736 287.544 155.459 287.016 155.39L287.006 155.389Z" fill="#3F3D56"/>
<path opacity="0.17" d="M282.455 156.412L259.128 339.511L259.382 339.869L259.922 340.639C260.201 341.032 260.61 341.313 261.077 341.433L262.295 341.74C262.571 341.808 262.859 341.817 263.138 341.767C263.418 341.717 263.684 341.608 263.919 341.448C264.154 341.288 264.352 341.08 264.501 340.838C264.65 340.596 264.747 340.325 264.784 340.043L288.742 157.645C288.811 157.115 288.668 156.58 288.343 156.156C288.018 155.732 287.538 155.455 287.008 155.385L285.084 155.132C284.823 155.097 284.558 155.114 284.303 155.183C284.049 155.251 283.811 155.369 283.603 155.531L282.455 156.412Z" fill="black"/>
<path d="M281.768 161.648L269.389 179.328L254.676 291.346L262.653 307.181L281.768 161.648Z" fill="#81819E"/>
<path d="M402.352 317.526L394.3 352.978L389.154 358.618H385.442L400.742 294.158L401.499 305.109V305.117L402.352 317.526Z" fill="#3F3D56"/>
<path d="M441.106 353.757L393.865 353.458L389.672 353.43L386.682 353.409L383.199 353.388H383.171C382.665 353.389 382.181 353.589 381.822 353.945L375.939 359.831C375.809 359.959 375.703 360.11 375.626 360.276C375.59 360.323 375.559 360.375 375.536 360.429C375.409 360.725 375.356 361.048 375.383 361.369C375.409 361.69 375.515 362 375.689 362.271C375.864 362.542 376.102 362.765 376.383 362.922C376.665 363.079 376.98 363.164 377.302 363.171H438.499C438.866 363.169 439.225 363.064 439.535 362.867C439.845 362.67 440.093 362.389 440.251 362.057L440.731 361.014L441.718 358.892L442.837 356.498C442.957 356.244 443.019 355.966 443.018 355.684C443.016 355.176 442.814 354.69 442.456 354.329C442.098 353.969 441.614 353.763 441.106 353.757Z" fill="#3F3D56"/>
<path opacity="0.17" d="M440.731 361.012L440.248 362.059C440.091 362.391 439.843 362.671 439.534 362.867C439.225 363.064 438.867 363.169 438.5 363.171H377.301C376.98 363.166 376.664 363.08 376.383 362.924C376.102 362.767 375.864 362.543 375.689 362.272C375.515 362.002 375.41 361.692 375.384 361.371C375.357 361.05 375.41 360.728 375.538 360.432C375.56 360.377 375.589 360.325 375.627 360.279L440.731 361.012Z" fill="black"/>
<path opacity="0.17" d="M401.499 305.109V305.117L388.397 358.618H385.442L400.742 294.158L401.499 305.109Z" fill="black"/>
<path d="M417.576 314.913L399.031 173.736C398.964 173.207 398.688 172.726 398.267 172.4L385.5 156.411L384.353 155.528C383.928 155.206 383.394 155.063 382.865 155.131L380.946 155.389C380.417 155.457 379.936 155.733 379.61 156.156C379.284 156.578 379.139 157.113 379.207 157.643L398.427 303.92V303.927L399.602 312.874L400.999 323.498V323.512L403.169 340.044C403.203 340.327 403.299 340.599 403.449 340.842C403.599 341.084 403.8 341.292 404.038 341.449C404.272 341.61 404.537 341.719 404.816 341.77C405.096 341.82 405.383 341.81 405.658 341.741L406.875 341.435C407.341 341.315 407.75 341.034 408.029 340.642L408.571 339.87L408.822 339.508L417.221 316.339C417.516 315.926 417.643 315.416 417.576 314.913Z" fill="#3F3D56"/>
<path opacity="0.17" d="M385.497 156.412L408.824 339.511L408.571 339.869L408.03 340.639C407.751 341.032 407.342 341.313 406.876 341.433L405.657 341.74C405.381 341.808 405.094 341.817 404.814 341.767C404.535 341.717 404.269 341.608 404.034 341.448C403.799 341.288 403.6 341.08 403.451 340.838C403.302 340.596 403.206 340.325 403.168 340.043L379.21 157.645C379.141 157.115 379.285 156.58 379.61 156.156C379.935 155.732 380.415 155.455 380.944 155.385L382.868 155.132C383.129 155.097 383.395 155.114 383.649 155.183C383.903 155.251 384.142 155.369 384.35 155.531L385.497 156.412Z" fill="black"/>
<path d="M386.185 161.648L398.564 179.328L413.277 291.346L405.3 307.181L386.185 161.648Z" fill="#81819E"/>
<path d="M156.102 387.494C156.104 387.844 156.074 388.194 156.012 388.538C155.984 388.705 155.949 388.865 155.907 389.025C155.569 390.319 154.811 391.464 153.753 392.281C152.695 393.098 151.396 393.541 150.059 393.54H123.894V455.985C123.895 457.305 123.463 458.588 122.663 459.638C122.065 458.935 121.474 458.232 120.89 457.523C117.761 453.779 114.736 449.953 111.816 446.043V393.54H100.134C98.5768 393.539 97.0797 392.936 95.9561 391.857C94.8324 390.778 94.1689 389.306 94.1043 387.748C94.0397 386.191 94.5789 384.669 95.6093 383.5C96.6397 382.331 98.0816 381.606 99.6337 381.476C99.8006 381.462 99.9675 381.455 100.134 381.455H150.059C151.661 381.455 153.197 382.09 154.33 383.223C155.463 384.355 156.101 385.892 156.102 387.494Z" fill="#3F3D56"/>
<path d="M573.046 387.494C573.046 388.718 572.676 389.913 571.983 390.922C571.29 391.931 570.308 392.705 569.166 393.144C568.624 393.351 568.055 393.478 567.476 393.52C567.323 393.534 567.164 393.54 567.011 393.54H555.336V450.217C555.162 450.447 554.981 450.676 554.8 450.906C552.054 454.42 549.224 457.864 546.31 461.238C545.38 460.714 544.607 459.95 544.07 459.027C543.534 458.103 543.253 457.053 543.258 455.985V393.54H517.085C516.313 393.543 515.548 393.394 514.833 393.102C513.932 392.742 513.131 392.169 512.499 391.432C511.867 390.696 511.423 389.817 511.203 388.872V388.865C510.879 387.491 511.051 386.047 511.69 384.788C511.683 384.781 511.683 384.781 511.69 384.781C511.966 384.227 512.327 383.72 512.76 383.278C513.323 382.701 513.996 382.242 514.739 381.929C515.482 381.616 516.279 381.455 517.085 381.455H567.011C568.611 381.455 570.146 382.091 571.278 383.223C572.41 384.355 573.046 385.891 573.046 387.492L573.046 387.494Z" fill="#3F3D56"/>
<path d="M572.647 271.067C570.161 271.067 567.701 271.557 565.405 272.508C563.109 273.46 561.023 274.855 559.266 276.613C557.508 278.371 556.115 280.459 555.164 282.756C554.213 285.053 553.723 287.515 553.723 290.002C553.724 294.394 555.25 298.65 558.041 302.04C560.833 305.431 564.714 307.745 569.023 308.586V339.555H581.102V271.067H572.647Z" fill="#3F3D56"/>
<path d="M242.258 340.208C241.054 339.5 239.709 339.066 238.318 338.935C236.927 338.803 235.525 338.979 234.209 339.449C232.894 339.919 231.697 340.672 230.703 341.654C229.71 342.637 228.944 343.826 228.46 345.137L206.641 345.988L203.701 356.157L234.719 357.746C236.974 358.415 239.396 358.232 241.526 357.234C243.655 356.235 245.345 354.489 246.274 352.328C247.203 350.166 247.308 347.738 246.568 345.504C245.828 343.271 244.294 341.386 242.258 340.208Z" fill="#9E616A"/>
<path d="M224.336 358.843L201.924 358.563L199.087 358.525L153.489 357.95C153.489 357.95 141.106 346.129 130.324 333.959L131.835 323.022C133.309 312.288 138.631 302.455 146.809 295.354C162.252 305.679 171.207 326.116 171.207 326.116L186.223 332.839C196.791 333.312 207.088 336.33 216.241 341.636L221.179 344.498L224.336 358.843Z" fill="#81819E"/>
<path d="M294.752 555.089H375.592C370.078 555.896 364.513 556.534 358.897 557.002H311.447C305.829 556.536 300.264 555.898 294.752 555.089Z" fill="#CCCCCC"/>
<path d="M311.005 514.367C312.57 500.238 321.12 486.223 334.503 481.453C329.395 496.042 329.609 511.969 335.107 526.416C337.248 531.98 340.207 537.945 338.34 543.606C337.177 547.129 334.256 549.851 330.972 551.573C327.688 553.295 324.029 554.143 320.416 554.975L319.711 555.575C313.785 542.655 309.441 528.496 311.005 514.367Z" fill="#CCCCCC"/>
<path d="M334.64 481.718C326.928 490.6 322.209 501.688 321.154 513.407C320.882 515.926 321.008 518.472 321.529 520.951C322.114 523.35 323.33 525.548 325.051 527.318C326.622 529 328.425 530.538 329.56 532.573C330.126 533.624 330.464 534.782 330.551 535.972C330.638 537.162 330.473 538.357 330.066 539.478C329.125 542.3 327.227 544.614 325.293 546.813C323.145 549.255 320.875 551.757 319.991 554.967C319.884 555.356 319.287 555.167 319.394 554.779C320.932 549.193 326.288 545.96 328.795 540.914C329.965 538.559 330.433 535.838 329.274 533.384C328.26 531.239 326.403 529.651 324.797 527.961C323.093 526.26 321.831 524.167 321.121 521.865C320.477 519.42 320.252 516.883 320.458 514.363C320.831 508.682 322.094 503.095 324.201 497.807C326.573 491.758 329.961 486.159 334.219 481.254C334.483 480.95 334.902 481.416 334.64 481.718Z" fill="white"/>
<path d="M321.272 509.614C319.331 509.17 317.611 508.05 316.419 506.454C315.227 504.858 314.641 502.89 314.765 500.902C314.771 500.821 314.808 500.745 314.869 500.691C314.929 500.637 315.008 500.608 315.089 500.611C315.17 500.614 315.247 500.648 315.304 500.707C315.36 500.765 315.391 500.843 315.391 500.925C315.272 502.776 315.818 504.609 316.931 506.093C318.044 507.577 319.65 508.613 321.46 509.016C321.853 509.104 321.663 509.701 321.272 509.614Z" fill="white"/>
<path d="M324.142 526.57C327.608 524.435 330.143 521.072 331.241 517.151C331.35 516.762 331.947 516.951 331.838 517.339C330.688 521.418 328.043 524.912 324.431 527.125C324.087 527.336 323.799 526.779 324.142 526.57Z" fill="white"/>
<path d="M327.162 492.343C327.877 492.672 328.662 492.817 329.448 492.767C330.233 492.716 330.993 492.472 331.661 492.054C332.002 491.839 332.289 492.397 331.95 492.61C331.21 493.068 330.37 493.337 329.503 493.395C328.635 493.452 327.767 493.296 326.973 492.941C326.896 492.913 326.831 492.858 326.793 492.785C326.755 492.712 326.747 492.627 326.769 492.548C326.794 492.469 326.85 492.403 326.923 492.365C326.997 492.326 327.082 492.319 327.162 492.343Z" fill="white"/>
<path d="M375.819 506.099C375.609 506.239 375.4 506.379 375.19 506.525C372.384 508.426 369.736 510.551 367.274 512.881C367.081 513.058 366.887 513.241 366.7 513.423C360.827 519.099 356.059 525.817 352.637 533.236C351.278 536.189 350.146 539.241 349.25 542.366C348.012 546.682 347.014 551.46 344.498 555.01C344.24 555.384 343.959 555.741 343.656 556.079L320.497 556.389C320.444 556.363 320.39 556.343 320.337 556.317L319.413 556.372C319.448 556.207 319.488 556.038 319.523 555.873C319.543 555.778 319.568 555.682 319.588 555.587C319.602 555.523 319.618 555.459 319.627 555.401C319.632 555.38 319.637 555.359 319.642 555.343C319.652 555.284 319.668 555.231 319.677 555.178C319.897 554.229 320.124 553.279 320.358 552.33C320.358 552.324 320.358 552.324 320.363 552.319C322.076 545.065 324.644 538.04 328.011 531.392C328.114 531.195 328.217 530.992 328.331 530.795C329.892 527.851 331.691 525.04 333.709 522.389C334.819 520.941 336.002 519.55 337.253 518.222C340.491 514.796 344.247 511.902 348.384 509.644C356.632 505.144 366.227 503.334 375.14 505.896C375.368 505.962 375.591 506.028 375.819 506.099Z" fill="#CCCCCC"/>
<path d="M375.771 506.394C364.269 508.84 353.829 514.85 345.936 523.571C344.203 525.418 342.772 527.527 341.696 529.82C340.719 532.088 340.368 534.576 340.677 537.025C340.92 539.315 341.433 541.629 341.116 543.938C340.935 545.118 340.508 546.246 339.862 547.249C339.215 548.251 338.364 549.106 337.364 549.757C334.916 551.442 332.008 552.147 329.14 552.737C325.956 553.393 322.638 554.023 320 556.054C319.681 556.3 319.318 555.789 319.637 555.544C324.226 552.01 330.448 552.656 335.486 550.137C337.837 548.962 339.848 547.071 340.399 544.413C340.88 542.09 340.353 539.703 340.087 537.387C339.75 535.001 340.002 532.57 340.821 530.304C341.777 527.964 343.124 525.803 344.805 523.915C348.521 519.604 352.891 515.904 357.756 512.951C363.289 509.55 369.363 507.121 375.715 505.769C376.108 505.686 376.162 506.311 375.771 506.394Z" fill="white"/>
<path d="M348.312 520.613C347.03 519.089 346.33 517.159 346.339 515.167C346.348 513.175 347.064 511.25 348.359 509.738C348.622 509.433 349.109 509.827 348.845 510.133C347.636 511.539 346.969 513.332 346.965 515.187C346.961 517.042 347.619 518.838 348.822 520.25C349.083 520.557 348.572 520.919 348.312 520.613Z" fill="white"/>
<path d="M340.401 535.881C344.453 536.265 348.501 535.107 351.737 532.637C352.058 532.392 352.421 532.903 352.101 533.147C348.728 535.711 344.513 536.908 340.298 536.499C339.896 536.459 340.002 535.842 340.401 535.881Z" fill="white"/>
<path d="M363.406 510.372C363.78 511.065 364.319 511.655 364.977 512.087C365.634 512.52 366.389 512.783 367.173 512.852C367.575 512.886 367.468 513.504 367.069 513.47C366.203 513.389 365.37 513.098 364.643 512.622C363.916 512.145 363.316 511.498 362.896 510.736C362.851 510.667 362.833 510.584 362.847 510.503C362.86 510.422 362.904 510.349 362.97 510.299C363.037 510.251 363.121 510.232 363.203 510.246C363.285 510.259 363.358 510.305 363.406 510.372Z" fill="white"/>
<path d="M387.832 525.782C391.9 525.782 395.198 522.482 395.198 518.412C395.198 514.342 391.9 511.042 387.832 511.042C383.764 511.042 380.466 514.342 380.466 518.412C380.466 522.482 383.764 525.782 387.832 525.782Z" fill="#CCCCCC"/>
<path d="M411.88 547.306C411.428 547.438 410.969 547.571 410.51 547.696C406.345 548.865 402.15 549.934 397.924 550.903C397.438 549.921 397.177 548.842 397.161 547.745C397.144 546.649 397.372 545.563 397.828 544.566C398.285 543.569 398.958 542.686 399.798 541.983C400.638 541.279 401.625 540.772 402.686 540.499C403.748 540.225 404.856 540.192 405.932 540.402C407.008 540.611 408.023 541.059 408.904 541.711C409.785 542.363 410.509 543.204 411.024 544.172C411.539 545.14 411.831 546.211 411.88 547.306Z" fill="#CCCCCC"/>
<path d="M453.961 531.485C453.398 531.749 452.835 532.013 452.271 532.271C451.66 532.563 451.041 532.841 450.429 533.12C449.74 533.433 449.059 533.739 448.371 534.045C445.784 535.2 443.17 536.313 440.548 537.385C440.513 537.329 440.479 537.266 440.444 537.204C439.526 535.482 439.328 533.466 439.893 531.598C440.458 529.729 441.741 528.162 443.46 527.239C445.178 526.316 447.193 526.113 449.061 526.674C450.929 527.235 452.499 528.515 453.426 530.232C453.639 530.634 453.818 531.053 453.961 531.485Z" fill="#CCCCCC"/>
<path d="M413.811 507.692C417.879 507.692 421.177 504.392 421.177 500.322C421.177 496.251 417.879 492.952 413.811 492.952C409.743 492.952 406.445 496.251 406.445 500.322C406.445 504.392 409.743 507.692 413.811 507.692Z" fill="#CCCCCC"/>
<path d="M346.246 96.5035C302.919 107.907 254.914 114.844 206.101 116.743C198.947 117.133 191.777 117.084 184.629 116.597C168.921 115.275 155.467 110.335 140.482 107.636C133.278 106.342 125.254 105.395 118.002 103.997C119.678 101.916 121.384 99.8617 123.12 97.8324C138.758 99.1543 154.639 103.482 170.465 105.493C197.368 108.916 227.51 105.096 247.905 95.6755C257.799 91.1044 265.378 85.3991 275.238 80.8071C276.579 80.1182 278.032 79.673 279.528 79.4921C282.65 79.2069 285.39 80.4662 287.622 81.5933C304.164 89.9494 328.181 96.74 350.474 93.0038C352.135 94.3048 348.979 95.7868 346.246 96.5035Z" fill="white"/>
<path d="M444.893 125.91C445.097 125.873 445.301 125.844 445.505 125.808C444.648 125.277 443.842 124.669 443.096 123.992L444.893 125.91Z" fill="white"/>
<path d="M578.342 142.396C569.031 143.14 559.672 143.695 550.264 144.059C543.11 144.445 535.94 144.397 528.792 143.913C513.085 142.584 499.63 137.651 484.645 134.951C470.912 132.481 454.224 131.292 445.505 125.809C468.041 121.906 491.39 129.851 514.628 132.808C533.425 135.121 552.48 134.18 570.957 130.025C573.53 134.075 575.992 138.198 578.342 142.396Z" fill="white"/>
<path d="M368.753 246.763C346.941 171.851 334.103 94.6127 334.103 16.5865V10.9316H326.856V16.5864C326.856 94.6127 314.017 171.851 292.206 246.763C291.152 250.39 290.617 254.148 290.62 257.925C290.62 259.353 290.901 260.768 291.447 262.087C291.993 263.407 292.794 264.606 293.804 265.616C294.813 266.626 296.011 267.428 297.33 267.974C298.649 268.521 300.063 268.802 301.49 268.802H315.985C315.985 270.707 316.36 272.593 317.088 274.352C317.817 276.112 318.884 277.711 320.23 279.058C321.576 280.404 323.174 281.473 324.933 282.202C326.691 282.931 328.576 283.306 330.479 283.306C332.383 283.306 334.268 282.931 336.026 282.202C337.785 281.473 339.383 280.404 340.729 279.058C342.075 277.711 343.142 276.112 343.871 274.352C344.599 272.593 344.974 270.707 344.974 268.802H356.253V300.062C354.662 300.108 353.149 300.762 352.025 301.889C350.9 303.017 350.25 304.532 350.207 306.124C350.164 307.716 350.732 309.264 351.794 310.451C352.856 311.637 354.331 312.372 355.917 312.504C357.503 312.636 359.08 312.156 360.323 311.162C361.567 310.167 362.383 308.735 362.603 307.157C362.824 305.58 362.434 303.978 361.511 302.68C360.589 301.382 359.205 300.487 357.644 300.178V268.802H359.468C362.352 268.802 365.117 267.656 367.155 265.616C369.194 263.576 370.339 260.81 370.339 257.925C370.341 254.148 369.807 250.39 368.753 246.763Z" fill="white"/>
</g>
<defs>
<clipPath id="clip0_125_2135">
<rect width="614" height="558" fill="white"/>
</clipPath>
</defs>
</svg>
