<svg width="161" height="23" viewBox="0 0 161 23" fill="none" xmlns="http://www.w3.org/2000/svg">
<path d="M5.99588 9.176V17.716C5.99588 18.2947 6.12654 18.7147 6.38788 18.976C6.66788 19.2187 7.13454 19.34 7.78788 19.34H9.74788V22H7.22788C5.79054 22 4.68921 21.664 3.92388 20.992C3.15854 20.32 2.77588 19.228 2.77588 17.716V9.176H0.955875V6.572H2.77588V2.736H5.99588V6.572H9.74788V9.176H5.99588ZM11.6258 14.216C11.6258 12.6667 11.9432 11.2947 12.5778 10.1C13.2312 8.90533 14.1085 7.98133 15.2098 7.328C16.3298 6.656 17.5618 6.32 18.9058 6.32C20.1192 6.32 21.1738 6.56267 22.0698 7.048C22.9845 7.51467 23.7125 8.10267 24.2538 8.812V6.572H27.4738V22H24.2538V19.704C23.7125 20.432 22.9752 21.0387 22.0418 21.524C21.1085 22.0093 20.0445 22.252 18.8498 22.252C17.5245 22.252 16.3112 21.916 15.2098 21.244C14.1085 20.5533 13.2312 19.6013 12.5778 18.388C11.9432 17.156 11.6258 15.7653 11.6258 14.216ZM24.2538 14.272C24.2538 13.208 24.0298 12.284 23.5818 11.5C23.1525 10.716 22.5832 10.1187 21.8738 9.708C21.1645 9.29733 20.3992 9.092 19.5778 9.092C18.7565 9.092 17.9912 9.29733 17.2818 9.708C16.5725 10.1 15.9938 10.688 15.5458 11.472C15.1165 12.2373 14.9018 13.152 14.9018 14.216C14.9018 15.28 15.1165 16.2133 15.5458 17.016C15.9938 17.8187 16.5725 18.4347 17.2818 18.864C18.0098 19.2747 18.7752 19.48 19.5778 19.48C20.3992 19.48 21.1645 19.2747 21.8738 18.864C22.5832 18.4533 23.1525 17.856 23.5818 17.072C24.0298 16.2693 24.2538 15.336 24.2538 14.272ZM34.8584 1.28V22H31.6664V1.28H34.8584ZM53.1892 13.908C53.1892 14.4867 53.1519 15.0093 53.0772 15.476H41.2892C41.3826 16.708 41.8399 17.6973 42.6612 18.444C43.4826 19.1907 44.4906 19.564 45.6852 19.564C47.4026 19.564 48.6159 18.8453 49.3252 17.408H52.7692C52.3026 18.8267 51.4532 19.9933 50.2212 20.908C49.0079 21.804 47.4959 22.252 45.6852 22.252C44.2106 22.252 42.8852 21.9253 41.7092 21.272C40.5519 20.6 39.6372 19.6667 38.9652 18.472C38.3119 17.2587 37.9852 15.8587 37.9852 14.272C37.9852 12.6853 38.3026 11.2947 38.9372 10.1C39.5906 8.88667 40.4959 7.95333 41.6532 7.3C42.8292 6.64667 44.1732 6.32 45.6852 6.32C47.1412 6.32 48.4386 6.63733 49.5772 7.272C50.7159 7.90667 51.6026 8.80267 52.2372 9.96C52.8719 11.0987 53.1892 12.4147 53.1892 13.908ZM49.8572 12.9C49.8386 11.724 49.4186 10.7813 48.5972 10.072C47.7759 9.36267 46.7586 9.008 45.5452 9.008C44.4439 9.008 43.5012 9.36267 42.7172 10.072C41.9332 10.7627 41.4666 11.7053 41.3172 12.9H49.8572ZM64.1145 6.32C65.3278 6.32 66.4105 6.572 67.3625 7.076C68.3331 7.58 69.0891 8.32667 69.6305 9.316C70.1718 10.3053 70.4425 11.5 70.4425 12.9V22H67.2785V13.376C67.2785 11.9947 66.9331 10.94 66.2425 10.212C65.5518 9.46533 64.6091 9.092 63.4145 9.092C62.2198 9.092 61.2678 9.46533 60.5585 10.212C59.8678 10.94 59.5225 11.9947 59.5225 13.376V22H56.3305V6.572H59.5225V8.336C60.0451 7.70133 60.7078 7.20667 61.5105 6.852C62.3318 6.49733 63.1998 6.32 64.1145 6.32ZM78.2381 9.176V17.716C78.2381 18.2947 78.3687 18.7147 78.6301 18.976C78.9101 19.2187 79.3767 19.34 80.0301 19.34H81.9901V22H79.4701C78.0327 22 76.9314 21.664 76.1661 20.992C75.4007 20.32 75.0181 19.228 75.0181 17.716V9.176H73.1981V6.572H75.0181V2.736H78.2381V6.572H81.9901V9.176H78.2381ZM92.716 6.32C93.9294 6.32 95.012 6.572 95.964 7.076C96.9347 7.58 97.6907 8.32667 98.232 9.316C98.7734 10.3053 99.044 11.5 99.044 12.9V22H95.88V13.376C95.88 11.9947 95.5347 10.94 94.844 10.212C94.1534 9.46533 93.2107 9.092 92.016 9.092C90.8214 9.092 89.8694 9.46533 89.16 10.212C88.4694 10.94 88.124 11.9947 88.124 13.376V22H84.932V6.572H88.124V8.336C88.6467 7.70133 89.3094 7.20667 90.112 6.852C90.9334 6.49733 91.8014 6.32 92.716 6.32ZM117.256 13.908C117.256 14.4867 117.218 15.0093 117.144 15.476H105.356C105.449 16.708 105.906 17.6973 106.728 18.444C107.549 19.1907 108.557 19.564 109.752 19.564C111.469 19.564 112.682 18.8453 113.392 17.408H116.836C116.369 18.8267 115.52 19.9933 114.288 20.908C113.074 21.804 111.562 22.252 109.752 22.252C108.277 22.252 106.952 21.9253 105.776 21.272C104.618 20.6 103.704 19.6667 103.032 18.472C102.378 17.2587 102.052 15.8587 102.052 14.272C102.052 12.6853 102.369 11.2947 103.004 10.1C103.657 8.88667 104.562 7.95333 105.72 7.3C106.896 6.64667 108.24 6.32 109.752 6.32C111.208 6.32 112.505 6.63733 113.644 7.272C114.782 7.90667 115.669 8.80267 116.304 9.96C116.938 11.0987 117.256 12.4147 117.256 13.908ZM113.924 12.9C113.905 11.724 113.485 10.7813 112.664 10.072C111.842 9.36267 110.825 9.008 109.612 9.008C108.51 9.008 107.568 9.36267 106.784 10.072C106 10.7627 105.533 11.7053 105.384 12.9H113.924ZM124.121 9.176V17.716C124.121 18.2947 124.252 18.7147 124.513 18.976C124.793 19.2187 125.26 19.34 125.913 19.34H127.873V22H125.353C123.916 22 122.814 21.664 122.049 20.992C121.284 20.32 120.901 19.228 120.901 17.716V9.176H119.081V6.572H120.901V2.736H124.121V6.572H127.873V9.176H124.121ZM132.103 22.196C131.524 22.196 131.039 22 130.647 21.608C130.255 21.216 130.059 20.7307 130.059 20.152C130.059 19.5733 130.255 19.088 130.647 18.696C131.039 18.304 131.524 18.108 132.103 18.108C132.663 18.108 133.139 18.304 133.531 18.696C133.923 19.088 134.119 19.5733 134.119 20.152C134.119 20.7307 133.923 21.216 133.531 21.608C133.139 22 132.663 22.196 132.103 22.196ZM136.505 14.216C136.505 12.6667 136.822 11.2947 137.457 10.1C138.11 8.90533 138.987 7.98133 140.089 7.328C141.209 6.656 142.441 6.32 143.785 6.32C144.998 6.32 146.053 6.56267 146.949 7.048C147.863 7.51467 148.591 8.10267 149.133 8.812V6.572H152.353V22H149.133V19.704C148.591 20.432 147.854 21.0387 146.921 21.524C145.987 22.0093 144.923 22.252 143.729 22.252C142.403 22.252 141.19 21.916 140.089 21.244C138.987 20.5533 138.11 19.6013 137.457 18.388C136.822 17.156 136.505 15.7653 136.505 14.216ZM149.133 14.272C149.133 13.208 148.909 12.284 148.461 11.5C148.031 10.716 147.462 10.1187 146.753 9.708C146.043 9.29733 145.278 9.092 144.457 9.092C143.635 9.092 142.87 9.29733 142.161 9.708C141.451 10.1 140.873 10.688 140.425 11.472C139.995 12.2373 139.781 13.152 139.781 14.216C139.781 15.28 139.995 16.2133 140.425 17.016C140.873 17.8187 141.451 18.4347 142.161 18.864C142.889 19.2747 143.654 19.48 144.457 19.48C145.278 19.48 146.043 19.2747 146.753 18.864C147.462 18.4533 148.031 17.856 148.461 17.072C148.909 16.2693 149.133 15.336 149.133 14.272ZM158.169 4.528C157.591 4.528 157.105 4.332 156.713 3.94C156.321 3.548 156.125 3.06267 156.125 2.484C156.125 1.90533 156.321 1.42 156.713 1.028C157.105 0.635999 157.591 0.439999 158.169 0.439999C158.729 0.439999 159.205 0.635999 159.597 1.028C159.989 1.42 160.185 1.90533 160.185 2.484C160.185 3.06267 159.989 3.548 159.597 3.94C159.205 4.332 158.729 4.528 158.169 4.528ZM159.737 6.572V22H156.545V6.572H159.737Z" fill="#333333"/>
</svg>
